<mxfile host="U0V">
  <diagram id="z3K" name="dark_olive_green">
    <mxGraphModel dx="0" dy="0" background="#556B2F" grid="0" gridSize="10" guides="1" tooltips="1" connect="1" arrows="1" fold="1" page="1" pageScale="1" pageWidth="1169" pageHeight="827" math="0" shadow="0">
      <root>
        <mxCell id="page_root_z3K" parent="z3K"/>
        <mxCell id="node_root_z3K" parent="page_root_z3K"/>
        <mxCell id="z3K-2" value="" style="whiteSpace=wrap;html=1;fillColor=#ffffff;strokeColor=#000000;fontColor=#000000" vertex="1" parent="node_root_z3K">
          <mxGeometry x="30" y="30" width="160" height="160" as="geometry"/>
        </mxCell>
        <mxCell id="z3K-3" value="dark_olive_green" style="whiteSpace=wrap;html=1;fontColor=#FFFFFF;text;fontSize=89;fontStyle=1;fillColor=none" vertex="1" parent="node_root_z3K">
          <mxGeometry x="280" y="85" width="100" height="50" as="geometry"/>
        </mxCell>
        <mxCell id="z3K-4" value="dark_olive_green" style="whiteSpace=wrap;html=1;fontColor=#FFFFFF;text;fontSize=67;fontStyle=1;fillColor=none" vertex="1" parent="node_root_z3K">
          <mxGeometry x="500" y="85" width="100" height="50" as="geometry"/>
        </mxCell>
        <mxCell id="z3K-5" value="dark_olive_green" style="whiteSpace=wrap;html=1;fontColor=#FFFFFF;text;fontSize=50;fontStyle=1;fillColor=none" vertex="1" parent="node_root_z3K">
          <mxGeometry x="60" y="305" width="100" height="50" as="geometry"/>
        </mxCell>
        <mxCell id="z3K-6" value="dark_olive_green" style="whiteSpace=wrap;html=1;fontColor=#FFFFFF;text;fontSize=37;fontStyle=1;fillColor=none" vertex="1" parent="node_root_z3K">
          <mxGeometry x="280" y="305" width="100" height="50" as="geometry"/>
        </mxCell>
        <mxCell id="z3K-7" value="dark_olive_green" style="whiteSpace=wrap;html=1;fontColor=#FFFFFF;text;fontSize=28;fontStyle=1;fillColor=none" vertex="1" parent="node_root_z3K">
          <mxGeometry x="500" y="305" width="100" height="50" as="geometry"/>
        </mxCell>
        <mxCell id="z3K-8" value="dark_olive_green" style="whiteSpace=wrap;html=1;fontColor=#FFFFFF;text;fontSize=21;fontStyle=1;fillColor=none" vertex="1" parent="node_root_z3K">
          <mxGeometry x="60" y="525" width="100" height="50" as="geometry"/>
        </mxCell>
        <mxCell id="z3K-9" value="dark_olive_green" style="whiteSpace=wrap;html=1;fontColor=#FFFFFF;text;fontSize=16;fontStyle=1;fillColor=none" vertex="1" parent="node_root_z3K">
          <mxGeometry x="280" y="525" width="100" height="50" as="geometry"/>
        </mxCell>
      </root>
    </mxGraphModel>
  </diagram>
  <diagram id="9sn" name="cadet_blue">
    <mxGraphModel dx="0" dy="0" background="#5F9EA0" grid="0" gridSize="10" guides="1" tooltips="1" connect="1" arrows="1" fold="1" page="1" pageScale="1" pageWidth="1169" pageHeight="827" math="0" shadow="0">
      <root>
        <mxCell id="page_root_9sn" parent="9sn"/>
        <mxCell id="node_root_9sn" parent="page_root_9sn"/>
        <mxCell id="9sn-2" value="" style="whiteSpace=wrap;html=1;fillColor=#ffffff;strokeColor=#000000;fontColor=#000000" vertex="1" parent="node_root_9sn">
          <mxGeometry x="30" y="30" width="160" height="160" as="geometry"/>
        </mxCell>
        <mxCell id="9sn-3" value="cadet_blue" style="whiteSpace=wrap;html=1;fontColor=#FFFFFF;text;fontSize=89;fontStyle=1;fillColor=none" vertex="1" parent="node_root_9sn">
          <mxGeometry x="280" y="85" width="100" height="50" as="geometry"/>
        </mxCell>
        <mxCell id="9sn-4" value="cadet_blue" style="whiteSpace=wrap;html=1;fontColor=#FFFFFF;text;fontSize=67;fontStyle=1;fillColor=none" vertex="1" parent="node_root_9sn">
          <mxGeometry x="500" y="85" width="100" height="50" as="geometry"/>
        </mxCell>
        <mxCell id="9sn-5" value="cadet_blue" style="whiteSpace=wrap;html=1;fontColor=#FFFFFF;text;fontSize=50;fontStyle=1;fillColor=none" vertex="1" parent="node_root_9sn">
          <mxGeometry x="60" y="305" width="100" height="50" as="geometry"/>
        </mxCell>
        <mxCell id="9sn-6" value="cadet_blue" style="whiteSpace=wrap;html=1;fontColor=#FFFFFF;text;fontSize=37;fontStyle=1;fillColor=none" vertex="1" parent="node_root_9sn">
          <mxGeometry x="280" y="305" width="100" height="50" as="geometry"/>
        </mxCell>
        <mxCell id="9sn-7" value="cadet_blue" style="whiteSpace=wrap;html=1;fontColor=#FFFFFF;text;fontSize=28;fontStyle=1;fillColor=none" vertex="1" parent="node_root_9sn">
          <mxGeometry x="500" y="305" width="100" height="50" as="geometry"/>
        </mxCell>
        <mxCell id="9sn-8" value="cadet_blue" style="whiteSpace=wrap;html=1;fontColor=#FFFFFF;text;fontSize=21;fontStyle=1;fillColor=none" vertex="1" parent="node_root_9sn">
          <mxGeometry x="60" y="525" width="100" height="50" as="geometry"/>
        </mxCell>
        <mxCell id="9sn-9" value="cadet_blue" style="whiteSpace=wrap;html=1;fontColor=#FFFFFF;text;fontSize=16;fontStyle=1;fillColor=none" vertex="1" parent="node_root_9sn">
          <mxGeometry x="280" y="525" width="100" height="50" as="geometry"/>
        </mxCell>
      </root>
    </mxGraphModel>
  </diagram>
  <diagram id="ZV1" name="cornflower_blue">
    <mxGraphModel dx="0" dy="0" background="#6495ED" grid="0" gridSize="10" guides="1" tooltips="1" connect="1" arrows="1" fold="1" page="1" pageScale="1" pageWidth="1169" pageHeight="827" math="0" shadow="0">
      <root>
        <mxCell id="page_root_ZV1" parent="ZV1"/>
        <mxCell id="node_root_ZV1" parent="page_root_ZV1"/>
        <mxCell id="ZV1-2" value="" style="whiteSpace=wrap;html=1;fillColor=#ffffff;strokeColor=#000000;fontColor=#000000" vertex="1" parent="node_root_ZV1">
          <mxGeometry x="30" y="30" width="160" height="160" as="geometry"/>
        </mxCell>
        <mxCell id="ZV1-3" value="cornflower_blue" style="whiteSpace=wrap;html=1;fontColor=#FFFFFF;text;fontSize=89;fontStyle=1;fillColor=none" vertex="1" parent="node_root_ZV1">
          <mxGeometry x="280" y="85" width="100" height="50" as="geometry"/>
        </mxCell>
        <mxCell id="ZV1-4" value="cornflower_blue" style="whiteSpace=wrap;html=1;fontColor=#FFFFFF;text;fontSize=67;fontStyle=1;fillColor=none" vertex="1" parent="node_root_ZV1">
          <mxGeometry x="500" y="85" width="100" height="50" as="geometry"/>
        </mxCell>
        <mxCell id="ZV1-5" value="cornflower_blue" style="whiteSpace=wrap;html=1;fontColor=#FFFFFF;text;fontSize=50;fontStyle=1;fillColor=none" vertex="1" parent="node_root_ZV1">
          <mxGeometry x="60" y="305" width="100" height="50" as="geometry"/>
        </mxCell>
        <mxCell id="ZV1-6" value="cornflower_blue" style="whiteSpace=wrap;html=1;fontColor=#FFFFFF;text;fontSize=37;fontStyle=1;fillColor=none" vertex="1" parent="node_root_ZV1">
          <mxGeometry x="280" y="305" width="100" height="50" as="geometry"/>
        </mxCell>
        <mxCell id="ZV1-7" value="cornflower_blue" style="whiteSpace=wrap;html=1;fontColor=#FFFFFF;text;fontSize=28;fontStyle=1;fillColor=none" vertex="1" parent="node_root_ZV1">
          <mxGeometry x="500" y="305" width="100" height="50" as="geometry"/>
        </mxCell>
        <mxCell id="ZV1-8" value="cornflower_blue" style="whiteSpace=wrap;html=1;fontColor=#FFFFFF;text;fontSize=21;fontStyle=1;fillColor=none" vertex="1" parent="node_root_ZV1">
          <mxGeometry x="60" y="525" width="100" height="50" as="geometry"/>
        </mxCell>
        <mxCell id="ZV1-9" value="cornflower_blue" style="whiteSpace=wrap;html=1;fontColor=#FFFFFF;text;fontSize=16;fontStyle=1;fillColor=none" vertex="1" parent="node_root_ZV1">
          <mxGeometry x="280" y="525" width="100" height="50" as="geometry"/>
        </mxCell>
      </root>
    </mxGraphModel>
  </diagram>
  <diagram id="zLn" name="rebecca_purple">
    <mxGraphModel dx="0" dy="0" background="#663399" grid="0" gridSize="10" guides="1" tooltips="1" connect="1" arrows="1" fold="1" page="1" pageScale="1" pageWidth="1169" pageHeight="827" math="0" shadow="0">
      <root>
        <mxCell id="page_root_zLn" parent="zLn"/>
        <mxCell id="node_root_zLn" parent="page_root_zLn"/>
        <mxCell id="zLn-2" value="" style="whiteSpace=wrap;html=1;fillColor=#ffffff;strokeColor=#000000;fontColor=#000000" vertex="1" parent="node_root_zLn">
          <mxGeometry x="30" y="30" width="160" height="160" as="geometry"/>
        </mxCell>
        <mxCell id="zLn-3" value="rebecca_purple" style="whiteSpace=wrap;html=1;fontColor=#FFFFFF;text;fontSize=89;fontStyle=1;fillColor=none" vertex="1" parent="node_root_zLn">
          <mxGeometry x="280" y="85" width="100" height="50" as="geometry"/>
        </mxCell>
        <mxCell id="zLn-4" value="rebecca_purple" style="whiteSpace=wrap;html=1;fontColor=#FFFFFF;text;fontSize=67;fontStyle=1;fillColor=none" vertex="1" parent="node_root_zLn">
          <mxGeometry x="500" y="85" width="100" height="50" as="geometry"/>
        </mxCell>
        <mxCell id="zLn-5" value="rebecca_purple" style="whiteSpace=wrap;html=1;fontColor=#FFFFFF;text;fontSize=50;fontStyle=1;fillColor=none" vertex="1" parent="node_root_zLn">
          <mxGeometry x="60" y="305" width="100" height="50" as="geometry"/>
        </mxCell>
        <mxCell id="zLn-6" value="rebecca_purple" style="whiteSpace=wrap;html=1;fontColor=#FFFFFF;text;fontSize=37;fontStyle=1;fillColor=none" vertex="1" parent="node_root_zLn">
          <mxGeometry x="280" y="305" width="100" height="50" as="geometry"/>
        </mxCell>
        <mxCell id="zLn-7" value="rebecca_purple" style="whiteSpace=wrap;html=1;fontColor=#FFFFFF;text;fontSize=28;fontStyle=1;fillColor=none" vertex="1" parent="node_root_zLn">
          <mxGeometry x="500" y="305" width="100" height="50" as="geometry"/>
        </mxCell>
        <mxCell id="zLn-8" value="rebecca_purple" style="whiteSpace=wrap;html=1;fontColor=#FFFFFF;text;fontSize=21;fontStyle=1;fillColor=none" vertex="1" parent="node_root_zLn">
          <mxGeometry x="60" y="525" width="100" height="50" as="geometry"/>
        </mxCell>
        <mxCell id="zLn-9" value="rebecca_purple" style="whiteSpace=wrap;html=1;fontColor=#FFFFFF;text;fontSize=16;fontStyle=1;fillColor=none" vertex="1" parent="node_root_zLn">
          <mxGeometry x="280" y="525" width="100" height="50" as="geometry"/>
        </mxCell>
      </root>
    </mxGraphModel>
  </diagram>
  <diagram id="hiu" name="medium_aqua_marine">
    <mxGraphModel dx="0" dy="0" background="#66CDAA" grid="0" gridSize="10" guides="1" tooltips="1" connect="1" arrows="1" fold="1" page="1" pageScale="1" pageWidth="1169" pageHeight="827" math="0" shadow="0">
      <root>
        <mxCell id="page_root_hiu" parent="hiu"/>
        <mxCell id="node_root_hiu" parent="page_root_hiu"/>
        <mxCell id="hiu-2" value="" style="whiteSpace=wrap;html=1;fillColor=#ffffff;strokeColor=#000000;fontColor=#000000" vertex="1" parent="node_root_hiu">
          <mxGeometry x="30" y="30" width="160" height="160" as="geometry"/>
        </mxCell>
        <mxCell id="hiu-3" value="medium_aqua_marine" style="whiteSpace=wrap;html=1;fontColor=#1F2D3D;text;fontSize=89;fontStyle=1;fillColor=none" vertex="1" parent="node_root_hiu">
          <mxGeometry x="280" y="85" width="100" height="50" as="geometry"/>
        </mxCell>
        <mxCell id="hiu-4" value="medium_aqua_marine" style="whiteSpace=wrap;html=1;fontColor=#1F2D3D;text;fontSize=67;fontStyle=1;fillColor=none" vertex="1" parent="node_root_hiu">
          <mxGeometry x="500" y="85" width="100" height="50" as="geometry"/>
        </mxCell>
        <mxCell id="hiu-5" value="medium_aqua_marine" style="whiteSpace=wrap;html=1;fontColor=#1F2D3D;text;fontSize=50;fontStyle=1;fillColor=none" vertex="1" parent="node_root_hiu">
          <mxGeometry x="60" y="305" width="100" height="50" as="geometry"/>
        </mxCell>
        <mxCell id="hiu-6" value="medium_aqua_marine" style="whiteSpace=wrap;html=1;fontColor=#1F2D3D;text;fontSize=37;fontStyle=1;fillColor=none" vertex="1" parent="node_root_hiu">
          <mxGeometry x="280" y="305" width="100" height="50" as="geometry"/>
        </mxCell>
        <mxCell id="hiu-7" value="medium_aqua_marine" style="whiteSpace=wrap;html=1;fontColor=#1F2D3D;text;fontSize=28;fontStyle=1;fillColor=none" vertex="1" parent="node_root_hiu">
          <mxGeometry x="500" y="305" width="100" height="50" as="geometry"/>
        </mxCell>
        <mxCell id="hiu-8" value="medium_aqua_marine" style="whiteSpace=wrap;html=1;fontColor=#1F2D3D;text;fontSize=21;fontStyle=1;fillColor=none" vertex="1" parent="node_root_hiu">
          <mxGeometry x="60" y="525" width="100" height="50" as="geometry"/>
        </mxCell>
        <mxCell id="hiu-9" value="medium_aqua_marine" style="whiteSpace=wrap;html=1;fontColor=#1F2D3D;text;fontSize=16;fontStyle=1;fillColor=none" vertex="1" parent="node_root_hiu">
          <mxGeometry x="280" y="525" width="100" height="50" as="geometry"/>
        </mxCell>
      </root>
    </mxGraphModel>
  </diagram>
  <diagram id="qLM" name="dim_gray">
    <mxGraphModel dx="0" dy="0" background="#696969" grid="0" gridSize="10" guides="1" tooltips="1" connect="1" arrows="1" fold="1" page="1" pageScale="1" pageWidth="1169" pageHeight="827" math="0" shadow="0">
      <root>
        <mxCell id="page_root_qLM" parent="qLM"/>
        <mxCell id="node_root_qLM" parent="page_root_qLM"/>
        <mxCell id="qLM-2" value="" style="whiteSpace=wrap;html=1;fillColor=#ffffff;strokeColor=#000000;fontColor=#000000" vertex="1" parent="node_root_qLM">
          <mxGeometry x="30" y="30" width="160" height="160" as="geometry"/>
        </mxCell>
        <mxCell id="qLM-3" value="dim_gray" style="whiteSpace=wrap;html=1;fontColor=#FFFFFF;text;fontSize=89;fontStyle=1;fillColor=none" vertex="1" parent="node_root_qLM">
          <mxGeometry x="280" y="85" width="100" height="50" as="geometry"/>
        </mxCell>
        <mxCell id="qLM-4" value="dim_gray" style="whiteSpace=wrap;html=1;fontColor=#FFFFFF;text;fontSize=67;fontStyle=1;fillColor=none" vertex="1" parent="node_root_qLM">
          <mxGeometry x="500" y="85" width="100" height="50" as="geometry"/>
        </mxCell>
        <mxCell id="qLM-5" value="dim_gray" style="whiteSpace=wrap;html=1;fontColor=#FFFFFF;text;fontSize=50;fontStyle=1;fillColor=none" vertex="1" parent="node_root_qLM">
          <mxGeometry x="60" y="305" width="100" height="50" as="geometry"/>
        </mxCell>
        <mxCell id="qLM-6" value="dim_gray" style="whiteSpace=wrap;html=1;fontColor=#FFFFFF;text;fontSize=37;fontStyle=1;fillColor=none" vertex="1" parent="node_root_qLM">
          <mxGeometry x="280" y="305" width="100" height="50" as="geometry"/>
        </mxCell>
        <mxCell id="qLM-7" value="dim_gray" style="whiteSpace=wrap;html=1;fontColor=#FFFFFF;text;fontSize=28;fontStyle=1;fillColor=none" vertex="1" parent="node_root_qLM">
          <mxGeometry x="500" y="305" width="100" height="50" as="geometry"/>
        </mxCell>
        <mxCell id="qLM-8" value="dim_gray" style="whiteSpace=wrap;html=1;fontColor=#FFFFFF;text;fontSize=21;fontStyle=1;fillColor=none" vertex="1" parent="node_root_qLM">
          <mxGeometry x="60" y="525" width="100" height="50" as="geometry"/>
        </mxCell>
        <mxCell id="qLM-9" value="dim_gray" style="whiteSpace=wrap;html=1;fontColor=#FFFFFF;text;fontSize=16;fontStyle=1;fillColor=none" vertex="1" parent="node_root_qLM">
          <mxGeometry x="280" y="525" width="100" height="50" as="geometry"/>
        </mxCell>
      </root>
    </mxGraphModel>
  </diagram>
  <diagram id="7i9" name="dim_grey">
    <mxGraphModel dx="0" dy="0" background="#696969" grid="0" gridSize="10" guides="1" tooltips="1" connect="1" arrows="1" fold="1" page="1" pageScale="1" pageWidth="1169" pageHeight="827" math="0" shadow="0">
      <root>
        <mxCell id="page_root_7i9" parent="7i9"/>
        <mxCell id="node_root_7i9" parent="page_root_7i9"/>
        <mxCell id="7i9-2" value="" style="whiteSpace=wrap;html=1;fillColor=#ffffff;strokeColor=#000000;fontColor=#000000" vertex="1" parent="node_root_7i9">
          <mxGeometry x="30" y="30" width="160" height="160" as="geometry"/>
        </mxCell>
        <mxCell id="7i9-3" value="dim_grey" style="whiteSpace=wrap;html=1;fontColor=#FFFFFF;text;fontSize=89;fontStyle=1;fillColor=none" vertex="1" parent="node_root_7i9">
          <mxGeometry x="280" y="85" width="100" height="50" as="geometry"/>
        </mxCell>
        <mxCell id="7i9-4" value="dim_grey" style="whiteSpace=wrap;html=1;fontColor=#FFFFFF;text;fontSize=67;fontStyle=1;fillColor=none" vertex="1" parent="node_root_7i9">
          <mxGeometry x="500" y="85" width="100" height="50" as="geometry"/>
        </mxCell>
        <mxCell id="7i9-5" value="dim_grey" style="whiteSpace=wrap;html=1;fontColor=#FFFFFF;text;fontSize=50;fontStyle=1;fillColor=none" vertex="1" parent="node_root_7i9">
          <mxGeometry x="60" y="305" width="100" height="50" as="geometry"/>
        </mxCell>
        <mxCell id="7i9-6" value="dim_grey" style="whiteSpace=wrap;html=1;fontColor=#FFFFFF;text;fontSize=37;fontStyle=1;fillColor=none" vertex="1" parent="node_root_7i9">
          <mxGeometry x="280" y="305" width="100" height="50" as="geometry"/>
        </mxCell>
        <mxCell id="7i9-7" value="dim_grey" style="whiteSpace=wrap;html=1;fontColor=#FFFFFF;text;fontSize=28;fontStyle=1;fillColor=none" vertex="1" parent="node_root_7i9">
          <mxGeometry x="500" y="305" width="100" height="50" as="geometry"/>
        </mxCell>
        <mxCell id="7i9-8" value="dim_grey" style="whiteSpace=wrap;html=1;fontColor=#FFFFFF;text;fontSize=21;fontStyle=1;fillColor=none" vertex="1" parent="node_root_7i9">
          <mxGeometry x="60" y="525" width="100" height="50" as="geometry"/>
        </mxCell>
        <mxCell id="7i9-9" value="dim_grey" style="whiteSpace=wrap;html=1;fontColor=#FFFFFF;text;fontSize=16;fontStyle=1;fillColor=none" vertex="1" parent="node_root_7i9">
          <mxGeometry x="280" y="525" width="100" height="50" as="geometry"/>
        </mxCell>
      </root>
    </mxGraphModel>
  </diagram>
  <diagram id="Ew3" name="slate_blue">
    <mxGraphModel dx="0" dy="0" background="#6A5ACD" grid="0" gridSize="10" guides="1" tooltips="1" connect="1" arrows="1" fold="1" page="1" pageScale="1" pageWidth="1169" pageHeight="827" math="0" shadow="0">
      <root>
        <mxCell id="page_root_Ew3" parent="Ew3"/>
        <mxCell id="node_root_Ew3" parent="page_root_Ew3"/>
        <mxCell id="Ew3-2" value="" style="whiteSpace=wrap;html=1;fillColor=#ffffff;strokeColor=#000000;fontColor=#000000" vertex="1" parent="node_root_Ew3">
          <mxGeometry x="30" y="30" width="160" height="160" as="geometry"/>
        </mxCell>
        <mxCell id="Ew3-3" value="slate_blue" style="whiteSpace=wrap;html=1;fontColor=#FFFFFF;text;fontSize=89;fontStyle=1;fillColor=none" vertex="1" parent="node_root_Ew3">
          <mxGeometry x="280" y="85" width="100" height="50" as="geometry"/>
        </mxCell>
        <mxCell id="Ew3-4" value="slate_blue" style="whiteSpace=wrap;html=1;fontColor=#FFFFFF;text;fontSize=67;fontStyle=1;fillColor=none" vertex="1" parent="node_root_Ew3">
          <mxGeometry x="500" y="85" width="100" height="50" as="geometry"/>
        </mxCell>
        <mxCell id="Ew3-5" value="slate_blue" style="whiteSpace=wrap;html=1;fontColor=#FFFFFF;text;fontSize=50;fontStyle=1;fillColor=none" vertex="1" parent="node_root_Ew3">
          <mxGeometry x="60" y="305" width="100" height="50" as="geometry"/>
        </mxCell>
        <mxCell id="Ew3-6" value="slate_blue" style="whiteSpace=wrap;html=1;fontColor=#FFFFFF;text;fontSize=37;fontStyle=1;fillColor=none" vertex="1" parent="node_root_Ew3">
          <mxGeometry x="280" y="305" width="100" height="50" as="geometry"/>
        </mxCell>
        <mxCell id="Ew3-7" value="slate_blue" style="whiteSpace=wrap;html=1;fontColor=#FFFFFF;text;fontSize=28;fontStyle=1;fillColor=none" vertex="1" parent="node_root_Ew3">
          <mxGeometry x="500" y="305" width="100" height="50" as="geometry"/>
        </mxCell>
        <mxCell id="Ew3-8" value="slate_blue" style="whiteSpace=wrap;html=1;fontColor=#FFFFFF;text;fontSize=21;fontStyle=1;fillColor=none" vertex="1" parent="node_root_Ew3">
          <mxGeometry x="60" y="525" width="100" height="50" as="geometry"/>
        </mxCell>
        <mxCell id="Ew3-9" value="slate_blue" style="whiteSpace=wrap;html=1;fontColor=#FFFFFF;text;fontSize=16;fontStyle=1;fillColor=none" vertex="1" parent="node_root_Ew3">
          <mxGeometry x="280" y="525" width="100" height="50" as="geometry"/>
        </mxCell>
      </root>
    </mxGraphModel>
  </diagram>
  <diagram id="wdd" name="olive_drab">
    <mxGraphModel dx="0" dy="0" background="#6B8E23" grid="0" gridSize="10" guides="1" tooltips="1" connect="1" arrows="1" fold="1" page="1" pageScale="1" pageWidth="1169" pageHeight="827" math="0" shadow="0">
      <root>
        <mxCell id="page_root_wdd" parent="wdd"/>
        <mxCell id="node_root_wdd" parent="page_root_wdd"/>
        <mxCell id="wdd-2" value="" style="whiteSpace=wrap;html=1;fillColor=#ffffff;strokeColor=#000000;fontColor=#000000" vertex="1" parent="node_root_wdd">
          <mxGeometry x="30" y="30" width="160" height="160" as="geometry"/>
        </mxCell>
        <mxCell id="wdd-3" value="olive_drab" style="whiteSpace=wrap;html=1;fontColor=#FFFFFF;text;fontSize=89;fontStyle=1;fillColor=none" vertex="1" parent="node_root_wdd">
          <mxGeometry x="280" y="85" width="100" height="50" as="geometry"/>
        </mxCell>
        <mxCell id="wdd-4" value="olive_drab" style="whiteSpace=wrap;html=1;fontColor=#FFFFFF;text;fontSize=67;fontStyle=1;fillColor=none" vertex="1" parent="node_root_wdd">
          <mxGeometry x="500" y="85" width="100" height="50" as="geometry"/>
        </mxCell>
        <mxCell id="wdd-5" value="olive_drab" style="whiteSpace=wrap;html=1;fontColor=#FFFFFF;text;fontSize=50;fontStyle=1;fillColor=none" vertex="1" parent="node_root_wdd">
          <mxGeometry x="60" y="305" width="100" height="50" as="geometry"/>
        </mxCell>
        <mxCell id="wdd-6" value="olive_drab" style="whiteSpace=wrap;html=1;fontColor=#FFFFFF;text;fontSize=37;fontStyle=1;fillColor=none" vertex="1" parent="node_root_wdd">
          <mxGeometry x="280" y="305" width="100" height="50" as="geometry"/>
        </mxCell>
        <mxCell id="wdd-7" value="olive_drab" style="whiteSpace=wrap;html=1;fontColor=#FFFFFF;text;fontSize=28;fontStyle=1;fillColor=none" vertex="1" parent="node_root_wdd">
          <mxGeometry x="500" y="305" width="100" height="50" as="geometry"/>
        </mxCell>
        <mxCell id="wdd-8" value="olive_drab" style="whiteSpace=wrap;html=1;fontColor=#FFFFFF;text;fontSize=21;fontStyle=1;fillColor=none" vertex="1" parent="node_root_wdd">
          <mxGeometry x="60" y="525" width="100" height="50" as="geometry"/>
        </mxCell>
        <mxCell id="wdd-9" value="olive_drab" style="whiteSpace=wrap;html=1;fontColor=#FFFFFF;text;fontSize=16;fontStyle=1;fillColor=none" vertex="1" parent="node_root_wdd">
          <mxGeometry x="280" y="525" width="100" height="50" as="geometry"/>
        </mxCell>
      </root>
    </mxGraphModel>
  </diagram>
  <diagram id="XYJ" name="slate_gray">
    <mxGraphModel dx="0" dy="0" background="#708090" grid="0" gridSize="10" guides="1" tooltips="1" connect="1" arrows="1" fold="1" page="1" pageScale="1" pageWidth="1169" pageHeight="827" math="0" shadow="0">
      <root>
        <mxCell id="page_root_XYJ" parent="XYJ"/>
        <mxCell id="node_root_XYJ" parent="page_root_XYJ"/>
        <mxCell id="XYJ-2" value="" style="whiteSpace=wrap;html=1;fillColor=#ffffff;strokeColor=#000000;fontColor=#000000" vertex="1" parent="node_root_XYJ">
          <mxGeometry x="30" y="30" width="160" height="160" as="geometry"/>
        </mxCell>
        <mxCell id="XYJ-3" value="slate_gray" style="whiteSpace=wrap;html=1;fontColor=#FFFFFF;text;fontSize=89;fontStyle=1;fillColor=none" vertex="1" parent="node_root_XYJ">
          <mxGeometry x="280" y="85" width="100" height="50" as="geometry"/>
        </mxCell>
        <mxCell id="XYJ-4" value="slate_gray" style="whiteSpace=wrap;html=1;fontColor=#FFFFFF;text;fontSize=67;fontStyle=1;fillColor=none" vertex="1" parent="node_root_XYJ">
          <mxGeometry x="500" y="85" width="100" height="50" as="geometry"/>
        </mxCell>
        <mxCell id="XYJ-5" value="slate_gray" style="whiteSpace=wrap;html=1;fontColor=#FFFFFF;text;fontSize=50;fontStyle=1;fillColor=none" vertex="1" parent="node_root_XYJ">
          <mxGeometry x="60" y="305" width="100" height="50" as="geometry"/>
        </mxCell>
        <mxCell id="XYJ-6" value="slate_gray" style="whiteSpace=wrap;html=1;fontColor=#FFFFFF;text;fontSize=37;fontStyle=1;fillColor=none" vertex="1" parent="node_root_XYJ">
          <mxGeometry x="280" y="305" width="100" height="50" as="geometry"/>
        </mxCell>
        <mxCell id="XYJ-7" value="slate_gray" style="whiteSpace=wrap;html=1;fontColor=#FFFFFF;text;fontSize=28;fontStyle=1;fillColor=none" vertex="1" parent="node_root_XYJ">
          <mxGeometry x="500" y="305" width="100" height="50" as="geometry"/>
        </mxCell>
        <mxCell id="XYJ-8" value="slate_gray" style="whiteSpace=wrap;html=1;fontColor=#FFFFFF;text;fontSize=21;fontStyle=1;fillColor=none" vertex="1" parent="node_root_XYJ">
          <mxGeometry x="60" y="525" width="100" height="50" as="geometry"/>
        </mxCell>
        <mxCell id="XYJ-9" value="slate_gray" style="whiteSpace=wrap;html=1;fontColor=#FFFFFF;text;fontSize=16;fontStyle=1;fillColor=none" vertex="1" parent="node_root_XYJ">
          <mxGeometry x="280" y="525" width="100" height="50" as="geometry"/>
        </mxCell>
      </root>
    </mxGraphModel>
  </diagram>
  <diagram id="IrE" name="slate_grey">
    <mxGraphModel dx="0" dy="0" background="#708090" grid="0" gridSize="10" guides="1" tooltips="1" connect="1" arrows="1" fold="1" page="1" pageScale="1" pageWidth="1169" pageHeight="827" math="0" shadow="0">
      <root>
        <mxCell id="page_root_IrE" parent="IrE"/>
        <mxCell id="node_root_IrE" parent="page_root_IrE"/>
        <mxCell id="IrE-2" value="" style="whiteSpace=wrap;html=1;fillColor=#ffffff;strokeColor=#000000;fontColor=#000000" vertex="1" parent="node_root_IrE">
          <mxGeometry x="30" y="30" width="160" height="160" as="geometry"/>
        </mxCell>
        <mxCell id="IrE-3" value="slate_grey" style="whiteSpace=wrap;html=1;fontColor=#FFFFFF;text;fontSize=89;fontStyle=1;fillColor=none" vertex="1" parent="node_root_IrE">
          <mxGeometry x="280" y="85" width="100" height="50" as="geometry"/>
        </mxCell>
        <mxCell id="IrE-4" value="slate_grey" style="whiteSpace=wrap;html=1;fontColor=#FFFFFF;text;fontSize=67;fontStyle=1;fillColor=none" vertex="1" parent="node_root_IrE">
          <mxGeometry x="500" y="85" width="100" height="50" as="geometry"/>
        </mxCell>
        <mxCell id="IrE-5" value="slate_grey" style="whiteSpace=wrap;html=1;fontColor=#FFFFFF;text;fontSize=50;fontStyle=1;fillColor=none" vertex="1" parent="node_root_IrE">
          <mxGeometry x="60" y="305" width="100" height="50" as="geometry"/>
        </mxCell>
        <mxCell id="IrE-6" value="slate_grey" style="whiteSpace=wrap;html=1;fontColor=#FFFFFF;text;fontSize=37;fontStyle=1;fillColor=none" vertex="1" parent="node_root_IrE">
          <mxGeometry x="280" y="305" width="100" height="50" as="geometry"/>
        </mxCell>
        <mxCell id="IrE-7" value="slate_grey" style="whiteSpace=wrap;html=1;fontColor=#FFFFFF;text;fontSize=28;fontStyle=1;fillColor=none" vertex="1" parent="node_root_IrE">
          <mxGeometry x="500" y="305" width="100" height="50" as="geometry"/>
        </mxCell>
        <mxCell id="IrE-8" value="slate_grey" style="whiteSpace=wrap;html=1;fontColor=#FFFFFF;text;fontSize=21;fontStyle=1;fillColor=none" vertex="1" parent="node_root_IrE">
          <mxGeometry x="60" y="525" width="100" height="50" as="geometry"/>
        </mxCell>
        <mxCell id="IrE-9" value="slate_grey" style="whiteSpace=wrap;html=1;fontColor=#FFFFFF;text;fontSize=16;fontStyle=1;fillColor=none" vertex="1" parent="node_root_IrE">
          <mxGeometry x="280" y="525" width="100" height="50" as="geometry"/>
        </mxCell>
      </root>
    </mxGraphModel>
  </diagram>
  <diagram id="9M8" name="light_slate_gray">
    <mxGraphModel dx="0" dy="0" background="#778899" grid="0" gridSize="10" guides="1" tooltips="1" connect="1" arrows="1" fold="1" page="1" pageScale="1" pageWidth="1169" pageHeight="827" math="0" shadow="0">
      <root>
        <mxCell id="page_root_9M8" parent="9M8"/>
        <mxCell id="node_root_9M8" parent="page_root_9M8"/>
        <mxCell id="9M8-2" value="" style="whiteSpace=wrap;html=1;fillColor=#ffffff;strokeColor=#000000;fontColor=#000000" vertex="1" parent="node_root_9M8">
          <mxGeometry x="30" y="30" width="160" height="160" as="geometry"/>
        </mxCell>
        <mxCell id="9M8-3" value="light_slate_gray" style="whiteSpace=wrap;html=1;fontColor=#FFFFFF;text;fontSize=89;fontStyle=1;fillColor=none" vertex="1" parent="node_root_9M8">
          <mxGeometry x="280" y="85" width="100" height="50" as="geometry"/>
        </mxCell>
        <mxCell id="9M8-4" value="light_slate_gray" style="whiteSpace=wrap;html=1;fontColor=#FFFFFF;text;fontSize=67;fontStyle=1;fillColor=none" vertex="1" parent="node_root_9M8">
          <mxGeometry x="500" y="85" width="100" height="50" as="geometry"/>
        </mxCell>
        <mxCell id="9M8-5" value="light_slate_gray" style="whiteSpace=wrap;html=1;fontColor=#FFFFFF;text;fontSize=50;fontStyle=1;fillColor=none" vertex="1" parent="node_root_9M8">
          <mxGeometry x="60" y="305" width="100" height="50" as="geometry"/>
        </mxCell>
        <mxCell id="9M8-6" value="light_slate_gray" style="whiteSpace=wrap;html=1;fontColor=#FFFFFF;text;fontSize=37;fontStyle=1;fillColor=none" vertex="1" parent="node_root_9M8">
          <mxGeometry x="280" y="305" width="100" height="50" as="geometry"/>
        </mxCell>
        <mxCell id="9M8-7" value="light_slate_gray" style="whiteSpace=wrap;html=1;fontColor=#FFFFFF;text;fontSize=28;fontStyle=1;fillColor=none" vertex="1" parent="node_root_9M8">
          <mxGeometry x="500" y="305" width="100" height="50" as="geometry"/>
        </mxCell>
        <mxCell id="9M8-8" value="light_slate_gray" style="whiteSpace=wrap;html=1;fontColor=#FFFFFF;text;fontSize=21;fontStyle=1;fillColor=none" vertex="1" parent="node_root_9M8">
          <mxGeometry x="60" y="525" width="100" height="50" as="geometry"/>
        </mxCell>
        <mxCell id="9M8-9" value="light_slate_gray" style="whiteSpace=wrap;html=1;fontColor=#FFFFFF;text;fontSize=16;fontStyle=1;fillColor=none" vertex="1" parent="node_root_9M8">
          <mxGeometry x="280" y="525" width="100" height="50" as="geometry"/>
        </mxCell>
      </root>
    </mxGraphModel>
  </diagram>
  <diagram id="Jd2" name="light_slate_grey">
    <mxGraphModel dx="0" dy="0" background="#778899" grid="0" gridSize="10" guides="1" tooltips="1" connect="1" arrows="1" fold="1" page="1" pageScale="1" pageWidth="1169" pageHeight="827" math="0" shadow="0">
      <root>
        <mxCell id="page_root_Jd2" parent="Jd2"/>
        <mxCell id="node_root_Jd2" parent="page_root_Jd2"/>
        <mxCell id="Jd2-2" value="" style="whiteSpace=wrap;html=1;fillColor=#ffffff;strokeColor=#000000;fontColor=#000000" vertex="1" parent="node_root_Jd2">
          <mxGeometry x="30" y="30" width="160" height="160" as="geometry"/>
        </mxCell>
        <mxCell id="Jd2-3" value="light_slate_grey" style="whiteSpace=wrap;html=1;fontColor=#FFFFFF;text;fontSize=89;fontStyle=1;fillColor=none" vertex="1" parent="node_root_Jd2">
          <mxGeometry x="280" y="85" width="100" height="50" as="geometry"/>
        </mxCell>
        <mxCell id="Jd2-4" value="light_slate_grey" style="whiteSpace=wrap;html=1;fontColor=#FFFFFF;text;fontSize=67;fontStyle=1;fillColor=none" vertex="1" parent="node_root_Jd2">
          <mxGeometry x="500" y="85" width="100" height="50" as="geometry"/>
        </mxCell>
        <mxCell id="Jd2-5" value="light_slate_grey" style="whiteSpace=wrap;html=1;fontColor=#FFFFFF;text;fontSize=50;fontStyle=1;fillColor=none" vertex="1" parent="node_root_Jd2">
          <mxGeometry x="60" y="305" width="100" height="50" as="geometry"/>
        </mxCell>
        <mxCell id="Jd2-6" value="light_slate_grey" style="whiteSpace=wrap;html=1;fontColor=#FFFFFF;text;fontSize=37;fontStyle=1;fillColor=none" vertex="1" parent="node_root_Jd2">
          <mxGeometry x="280" y="305" width="100" height="50" as="geometry"/>
        </mxCell>
        <mxCell id="Jd2-7" value="light_slate_grey" style="whiteSpace=wrap;html=1;fontColor=#FFFFFF;text;fontSize=28;fontStyle=1;fillColor=none" vertex="1" parent="node_root_Jd2">
          <mxGeometry x="500" y="305" width="100" height="50" as="geometry"/>
        </mxCell>
        <mxCell id="Jd2-8" value="light_slate_grey" style="whiteSpace=wrap;html=1;fontColor=#FFFFFF;text;fontSize=21;fontStyle=1;fillColor=none" vertex="1" parent="node_root_Jd2">
          <mxGeometry x="60" y="525" width="100" height="50" as="geometry"/>
        </mxCell>
        <mxCell id="Jd2-9" value="light_slate_grey" style="whiteSpace=wrap;html=1;fontColor=#FFFFFF;text;fontSize=16;fontStyle=1;fillColor=none" vertex="1" parent="node_root_Jd2">
          <mxGeometry x="280" y="525" width="100" height="50" as="geometry"/>
        </mxCell>
      </root>
    </mxGraphModel>
  </diagram>
  <diagram id="FxI" name="medium_slate_blue">
    <mxGraphModel dx="0" dy="0" background="#7B68EE" grid="0" gridSize="10" guides="1" tooltips="1" connect="1" arrows="1" fold="1" page="1" pageScale="1" pageWidth="1169" pageHeight="827" math="0" shadow="0">
      <root>
        <mxCell id="page_root_FxI" parent="FxI"/>
        <mxCell id="node_root_FxI" parent="page_root_FxI"/>
        <mxCell id="FxI-2" value="" style="whiteSpace=wrap;html=1;fillColor=#ffffff;strokeColor=#000000;fontColor=#000000" vertex="1" parent="node_root_FxI">
          <mxGeometry x="30" y="30" width="160" height="160" as="geometry"/>
        </mxCell>
        <mxCell id="FxI-3" value="medium_slate_blue" style="whiteSpace=wrap;html=1;fontColor=#FFFFFF;text;fontSize=89;fontStyle=1;fillColor=none" vertex="1" parent="node_root_FxI">
          <mxGeometry x="280" y="85" width="100" height="50" as="geometry"/>
        </mxCell>
        <mxCell id="FxI-4" value="medium_slate_blue" style="whiteSpace=wrap;html=1;fontColor=#FFFFFF;text;fontSize=67;fontStyle=1;fillColor=none" vertex="1" parent="node_root_FxI">
          <mxGeometry x="500" y="85" width="100" height="50" as="geometry"/>
        </mxCell>
        <mxCell id="FxI-5" value="medium_slate_blue" style="whiteSpace=wrap;html=1;fontColor=#FFFFFF;text;fontSize=50;fontStyle=1;fillColor=none" vertex="1" parent="node_root_FxI">
          <mxGeometry x="60" y="305" width="100" height="50" as="geometry"/>
        </mxCell>
        <mxCell id="FxI-6" value="medium_slate_blue" style="whiteSpace=wrap;html=1;fontColor=#FFFFFF;text;fontSize=37;fontStyle=1;fillColor=none" vertex="1" parent="node_root_FxI">
          <mxGeometry x="280" y="305" width="100" height="50" as="geometry"/>
        </mxCell>
        <mxCell id="FxI-7" value="medium_slate_blue" style="whiteSpace=wrap;html=1;fontColor=#FFFFFF;text;fontSize=28;fontStyle=1;fillColor=none" vertex="1" parent="node_root_FxI">
          <mxGeometry x="500" y="305" width="100" height="50" as="geometry"/>
        </mxCell>
        <mxCell id="FxI-8" value="medium_slate_blue" style="whiteSpace=wrap;html=1;fontColor=#FFFFFF;text;fontSize=21;fontStyle=1;fillColor=none" vertex="1" parent="node_root_FxI">
          <mxGeometry x="60" y="525" width="100" height="50" as="geometry"/>
        </mxCell>
        <mxCell id="FxI-9" value="medium_slate_blue" style="whiteSpace=wrap;html=1;fontColor=#FFFFFF;text;fontSize=16;fontStyle=1;fillColor=none" vertex="1" parent="node_root_FxI">
          <mxGeometry x="280" y="525" width="100" height="50" as="geometry"/>
        </mxCell>
      </root>
    </mxGraphModel>
  </diagram>
  <diagram id="Tbp" name="lawn_green">
    <mxGraphModel dx="0" dy="0" background="#7CFC00" grid="0" gridSize="10" guides="1" tooltips="1" connect="1" arrows="1" fold="1" page="1" pageScale="1" pageWidth="1169" pageHeight="827" math="0" shadow="0">
      <root>
        <mxCell id="page_root_Tbp" parent="Tbp"/>
        <mxCell id="node_root_Tbp" parent="page_root_Tbp"/>
        <mxCell id="Tbp-2" value="" style="whiteSpace=wrap;html=1;fillColor=#ffffff;strokeColor=#000000;fontColor=#000000" vertex="1" parent="node_root_Tbp">
          <mxGeometry x="30" y="30" width="160" height="160" as="geometry"/>
        </mxCell>
        <mxCell id="Tbp-3" value="lawn_green" style="whiteSpace=wrap;html=1;fontColor=#1F2D3D;text;fontSize=89;fontStyle=1;fillColor=none" vertex="1" parent="node_root_Tbp">
          <mxGeometry x="280" y="85" width="100" height="50" as="geometry"/>
        </mxCell>
        <mxCell id="Tbp-4" value="lawn_green" style="whiteSpace=wrap;html=1;fontColor=#1F2D3D;text;fontSize=67;fontStyle=1;fillColor=none" vertex="1" parent="node_root_Tbp">
          <mxGeometry x="500" y="85" width="100" height="50" as="geometry"/>
        </mxCell>
        <mxCell id="Tbp-5" value="lawn_green" style="whiteSpace=wrap;html=1;fontColor=#1F2D3D;text;fontSize=50;fontStyle=1;fillColor=none" vertex="1" parent="node_root_Tbp">
          <mxGeometry x="60" y="305" width="100" height="50" as="geometry"/>
        </mxCell>
        <mxCell id="Tbp-6" value="lawn_green" style="whiteSpace=wrap;html=1;fontColor=#1F2D3D;text;fontSize=37;fontStyle=1;fillColor=none" vertex="1" parent="node_root_Tbp">
          <mxGeometry x="280" y="305" width="100" height="50" as="geometry"/>
        </mxCell>
        <mxCell id="Tbp-7" value="lawn_green" style="whiteSpace=wrap;html=1;fontColor=#1F2D3D;text;fontSize=28;fontStyle=1;fillColor=none" vertex="1" parent="node_root_Tbp">
          <mxGeometry x="500" y="305" width="100" height="50" as="geometry"/>
        </mxCell>
        <mxCell id="Tbp-8" value="lawn_green" style="whiteSpace=wrap;html=1;fontColor=#1F2D3D;text;fontSize=21;fontStyle=1;fillColor=none" vertex="1" parent="node_root_Tbp">
          <mxGeometry x="60" y="525" width="100" height="50" as="geometry"/>
        </mxCell>
        <mxCell id="Tbp-9" value="lawn_green" style="whiteSpace=wrap;html=1;fontColor=#1F2D3D;text;fontSize=16;fontStyle=1;fillColor=none" vertex="1" parent="node_root_Tbp">
          <mxGeometry x="280" y="525" width="100" height="50" as="geometry"/>
        </mxCell>
      </root>
    </mxGraphModel>
  </diagram>
</mxfile>